<svg viewBox="0 0 1059.617 1063.18" xmlns="http://www.w3.org/2000/svg"><path d="M357.953 21.333H701.66v119.763c30.73 13.574 57.153 28.995 81.593 46.956l-1.186-.832 105.205-60.683 172.344 299.943-105.205 60.416c1.65 13.683 2.592 29.527 2.592 45.59s-.94 31.908-2.77 47.48l.18-1.89 105.205 60.372L887.23 938.48l-105.206-60.683c-23.238 17.078-49.647 32.456-77.644 44.91l-2.718 1.08v121.545H357.954V927.35c-30.73-13.575-57.152-28.996-81.592-46.957l1.186.832-105.16 60.683L0 642.01l105.25-60.416c-1.68-13.943-2.638-30.09-2.638-46.458s.958-32.515 2.82-48.384l-.183 1.926L0 428.218l172.388-300.033 105.16 60.817c23.254-17.13 49.676-32.55 77.692-45.043l2.714-1.082zm254.665 89.043h-165.62v94.297l-29.742 10.463c-41.218 14.71-76.785 35.566-107.594 61.835l.475-.394-23.908 20.257-81.075-46.792-83.39 145.275 82.01 47.104-6.01 31.164c-3.752 18.48-5.9 39.72-5.9 61.462s2.148 42.983 6.242 63.522l-.342-2.06 6.01 31.165-82.01 47.193 83.39 145.32 81.12-46.793 23.907 20.257c30.335 25.874 65.9 46.73 104.753 60.697l2.367.743 29.74 10.463v90.735h165.622V861.99l29.74-10.462c41.22-14.71 76.786-35.566 107.595-61.835l-.476.395 23.908-20.257 81.074 46.793L937.85 671.35l-82.053-47.105 6.1-31.165c3.723-18.184 5.854-39.085 5.854-60.483s-2.13-42.298-6.193-62.5l.338 2.017-6.1-31.165 82.055-47.105-83.39-145.453-81.118 46.66-23.908-20.258c-30.335-25.874-65.9-46.73-104.753-60.697l-2.366-.743-29.74-10.463zm-82.81 208.362c118.516 0 214.594 96.077 214.594 214.595s-96.077 214.595-214.595 214.595c-118.517 0-214.595-96.077-214.595-214.595.127-118.466 96.128-214.468 214.582-214.595h.012zm0 340.146c69.34 0 125.55-56.21 125.55-125.55s-56.21-125.552-125.55-125.552-125.552 56.21-125.552 125.55c.076 69.31 56.242 125.476 125.544 125.552h.007z"/></svg>
